<svg width="145" height="145" viewBox="0 0 145 145" fill="none" xmlns="http://www.w3.org/2000/svg">
<circle cx="72.5" cy="72.5" r="72.5" fill="#230E6A"/>
<circle cx="72.5" cy="72.5" r="65.5952" fill="#130749"/>
<path d="M60.9345 113.583V40.2432H25.5476V31.4167H60.9345H88.6006C94.9974 31.4167 100.248 32.5133 104.353 34.7065C108.457 36.873 111.496 39.8553 113.468 43.6534C115.44 47.4515 116.427 51.7711 116.427 56.6123C116.427 61.4535 115.44 65.7464 113.468 69.491C111.496 73.2355 108.471 76.1777 104.393 78.3175C100.315 80.4305 95.104 81.487 88.7605 81.487H66.3718V72.5H88.4407C92.8118 72.5 96.33 71.8581 98.9954 70.5742C101.687 69.2904 103.633 67.4716 104.832 65.1178C106.058 62.7373 106.672 59.9022 106.672 56.6123C106.672 53.3224 106.058 50.4471 104.832 47.9864C103.606 45.5257 101.647 43.6266 98.9554 42.2893C96.2634 40.9252 92.7052 40.2432 88.2808 40.2432H70.8495V113.583H60.9345ZM99.4751 76.6725L119.625 113.583H108.111L88.2808 76.6725H99.4751Z" fill="white"/>
</svg>
