<svg width="450" height="436" viewBox="0 0 450 436" fill="none" xmlns="http://www.w3.org/2000/svg">
<path d="M224.793 436C348.943 436 449.587 377.893 449.587 306.215C449.587 234.537 348.943 176.43 224.793 176.43C100.643 176.43 0 234.537 0 306.215C0 377.893 100.643 436 224.793 436Z" fill="#F0F0F0"/>
<path d="M353.891 351.248C339.151 342.738 339.151 328.942 353.891 320.431C368.632 311.921 392.532 311.921 407.273 320.431C422.014 328.942 422.014 342.738 407.273 351.248C392.532 359.759 368.632 359.759 353.891 351.248Z" fill="#E0E0E0"/>
<path d="M54.078 352.431L15.3037 330.048C13.1188 328.789 13.1188 326.737 15.3037 325.478L240.841 195.264C242.067 194.643 243.422 194.319 244.796 194.319C246.17 194.319 247.525 194.643 248.751 195.264L287.534 217.647C289.719 218.906 289.719 220.957 287.534 222.217L61.9969 352.431C60.7695 353.052 59.4131 353.376 58.0374 353.376C56.6618 353.376 55.3054 353.052 54.078 352.431Z" fill="#E0E0E0"/>
<path d="M193.452 312.531L226.788 293.258C230.222 291.274 231.94 288.679 231.94 286.074C231.94 283.469 231.94 281.437 231.94 281.437L197.364 261.936C196.398 261.311 195.593 260.467 195.016 259.472C194.439 258.477 194.106 257.359 194.043 256.211V215.099L135.844 248.74V289.833C135.911 290.981 136.246 292.096 136.823 293.09C137.399 294.085 138.201 294.93 139.164 295.558L168.588 312.502C175.439 316.5 186.582 316.5 193.452 312.531Z" fill="#230E6A"/>
<g opacity="0.6">
<path d="M193.452 312.531L226.788 293.258C230.222 291.274 231.94 288.679 231.94 286.074C231.94 283.469 231.94 281.437 231.94 281.437L197.364 261.936C196.398 261.311 195.593 260.467 195.016 259.472C194.439 258.477 194.106 257.359 194.043 256.211V215.099L135.844 248.74V289.833C135.911 290.981 136.246 292.096 136.823 293.09C137.399 294.085 138.201 294.93 139.164 295.558L168.588 312.502C175.439 316.5 186.582 316.5 193.452 312.531Z" fill="black"/>
</g>
<path opacity="0.3" d="M149.802 297.113V301.731L139.135 295.577C138.173 294.949 137.372 294.104 136.797 293.11C136.221 292.115 135.888 290.999 135.825 289.852V248.74L146.911 242.339C147.14 245.153 147.388 248.063 147.627 250.925L139.832 255.41V287.515C139.894 288.663 140.227 289.781 140.804 290.776C141.381 291.771 142.186 292.615 143.152 293.239L149.802 297.113Z" fill="black"/>
<path d="M139.832 287.524C139.897 288.672 140.232 289.788 140.809 290.783C141.385 291.777 142.188 292.622 143.152 293.249L168.55 307.885C175.419 311.844 186.563 311.854 193.442 307.885L226.835 288.612C233.714 284.643 233.714 278.212 226.835 274.243L201.418 259.608C200.457 258.979 199.656 258.134 199.081 257.139C198.506 256.145 198.173 255.03 198.107 253.883V221.768L139.908 255.41L139.832 287.524Z" fill="#230E6A"/>
<path opacity="0.3" d="M139.832 287.524C139.897 288.672 140.232 289.788 140.809 290.783C141.385 291.777 142.188 292.622 143.152 293.249L168.55 307.885C175.419 311.844 186.563 311.854 193.442 307.885L226.835 288.612C233.714 284.643 233.714 278.212 226.835 274.243L201.418 259.608C200.457 258.979 199.656 258.134 199.081 257.139C198.506 256.145 198.173 255.03 198.107 253.883V221.768L139.908 255.41L139.832 287.524Z" fill="black"/>
<path opacity="0.5" d="M208.144 263.529L201.38 259.627C200.418 258.998 199.618 258.153 199.043 257.159C198.468 256.164 198.134 255.049 198.069 253.902V221.768L139.87 255.41V287.524C139.935 288.672 140.27 289.788 140.847 290.783C141.423 291.777 142.226 292.622 143.19 293.249L149.869 297.065L208.144 263.529Z" fill="black"/>
<path d="M231.949 281.447V286.084C231.949 288.688 230.222 291.274 226.797 293.268L193.404 312.531C189.749 314.482 185.668 315.495 181.525 315.479V310.861C185.668 310.877 189.749 309.864 193.404 307.913L226.797 288.631C230.222 286.656 231.949 284.051 231.949 281.447Z" fill="#230E6A"/>
<path opacity="0.5" d="M231.949 281.447V286.084C231.949 288.688 230.222 291.274 226.797 293.268L193.404 312.531C189.749 314.482 185.668 315.495 181.525 315.479V310.861C185.668 310.877 189.749 309.864 193.404 307.913L226.797 288.631C230.222 286.656 231.949 284.051 231.949 281.447Z" fill="black"/>
<path d="M46.3305 327.434C47.5887 328.042 48.972 328.345 50.3691 328.32C51.7661 328.296 53.1378 327.943 54.3735 327.291L279.539 197.296C280.746 196.508 281.751 195.448 282.472 194.199C283.193 192.951 283.61 191.551 283.689 190.112V7.95651C283.646 6.55626 283.273 5.18601 282.6 3.95742C281.927 2.72884 280.973 1.67668 279.816 0.886696C278.559 0.278325 277.177 -0.0249236 275.781 0.00160179C274.385 0.0281272 273.015 0.383678 271.782 1.03935L46.6168 131.072C45.4136 131.865 44.4148 132.93 43.7019 134.182C42.9889 135.434 42.5819 136.837 42.5142 138.276V320.402C42.5567 321.791 42.9241 323.15 43.5869 324.372C44.2496 325.593 45.1893 326.642 46.3305 327.434Z" fill="#230E6A"/>
<path d="M54.4022 327.281L279.568 197.286C280.777 196.5 281.783 195.44 282.504 194.192C283.225 192.943 283.641 191.542 283.718 190.102V7.95644C283.718 5.31361 281.858 4.23549 279.568 5.56167L54.4022 135.557C53.1944 136.344 52.1891 137.404 51.468 138.652C50.7469 139.901 50.3302 141.301 50.252 142.741V324.886C50.252 327.529 52.1124 328.607 54.4022 327.281Z" fill="#230E6A"/>
<path opacity="0.5" d="M54.4022 327.281L279.568 197.286C280.777 196.5 281.783 195.44 282.504 194.192C283.225 192.943 283.641 191.542 283.718 190.102V7.95644C283.718 5.31361 281.858 4.23549 279.568 5.56167L54.4022 135.557C53.1944 136.344 52.1891 137.404 51.468 138.652C50.7469 139.901 50.3302 141.301 50.252 142.741V324.886C50.252 327.529 52.1124 328.607 54.4022 327.281Z" fill="black"/>
<path d="M53.7915 332.014C52.6108 332.529 51.3323 332.782 50.0443 332.756C48.7562 332.729 47.4892 332.424 46.3305 331.861C45.1867 331.067 44.2455 330.015 43.5826 328.79C42.9197 327.565 42.5538 326.202 42.5142 324.81V308.228L50.29 312.731V329.313C50.2423 331.727 51.7784 332.824 53.7915 332.014Z" fill="#230E6A"/>
<path opacity="0.5" d="M53.7915 332.014C52.6108 332.529 51.3323 332.782 50.0443 332.756C48.7562 332.729 47.4892 332.424 46.3305 331.861C45.1867 331.067 44.2455 330.015 43.5826 328.79C42.9197 327.565 42.5538 326.202 42.5142 324.81V308.228L50.29 312.731V329.313C50.2423 331.727 51.7784 332.824 53.7915 332.014Z" fill="black"/>
<path d="M50.2427 312.731V329.313C50.2427 331.956 52.1509 333.025 54.393 331.708L279.559 201.713C280.761 200.93 281.763 199.875 282.483 198.634C283.204 197.393 283.624 196 283.709 194.567V177.909L50.2427 312.731Z" fill="#230E6A"/>
<path opacity="0.3" d="M50.252 312.693V329.313C50.252 331.956 52.1601 333.025 54.4022 331.708L279.568 201.713C280.768 200.929 281.768 199.873 282.487 198.632C283.206 197.391 283.625 195.999 283.709 194.567V177.909L50.252 312.693Z" fill="black"/>
<path d="M58.0278 291.884V145.327C58.0722 144.463 58.3201 143.622 58.7512 142.873C59.1823 142.123 59.7844 141.487 60.5085 141.014L273.404 18.0603C274.778 17.2684 275.895 17.9077 275.895 19.4915V166.126C275.848 166.99 275.599 167.831 275.166 168.58C274.733 169.33 274.13 169.966 273.404 170.438L60.518 293.363C59.1441 294.155 58.0278 293.506 58.0278 291.884Z" fill="#230E6A"/>
<path d="M58.0278 291.884V145.327C58.0722 144.463 58.3201 143.622 58.7512 142.873C59.1823 142.123 59.7844 141.487 60.5085 141.014L273.404 18.0603C274.778 17.2684 275.895 17.9077 275.895 19.4915V166.126C275.848 166.99 275.599 167.831 275.166 168.58C274.733 169.33 274.13 169.966 273.404 170.438L60.518 293.363C59.1441 294.155 58.0278 293.506 58.0278 291.884Z" fill="#263238"/>
<path d="M166.976 250.601C165.842 251.338 164.899 252.332 164.223 253.503C163.546 254.673 163.156 255.987 163.083 257.337C163.083 259.818 164.829 260.829 166.976 259.589C168.11 258.851 169.054 257.855 169.731 256.683C170.407 255.51 170.797 254.195 170.868 252.843C170.868 250.362 169.122 249.361 166.976 250.601Z" fill="#230E6A"/>
<path opacity="0.7" d="M51.4731 138.638C50.7336 139.881 50.311 141.287 50.2423 142.731V312.731L42.5142 308.228V138.276C42.5642 136.826 42.9847 135.414 43.7354 134.173L51.4731 138.638Z" fill="black"/>
<path opacity="0.3" d="M283.67 7.26947C283.375 5.13231 281.648 4.4072 279.558 5.56165L54.3927 135.557C53.1718 136.32 52.1642 137.38 51.4636 138.638L43.6782 134.145C44.3835 132.887 45.3941 131.827 46.6168 131.063L271.782 1.07742C273.017 0.421656 274.388 0.0660884 275.786 0.0395653C277.183 0.0130422 278.567 0.316311 279.825 0.924765C280.883 1.64544 281.774 2.58484 282.437 3.67944C283.1 4.77403 283.521 5.99831 283.67 7.26947Z" fill="black"/>
<path d="M295.816 29.6907C295.482 29.5228 295.108 29.4492 294.735 29.4778C294.361 29.5064 294.003 29.636 293.698 29.8529L81.241 152.587C80.4027 153.142 79.7068 153.886 79.2095 154.759C78.7122 155.633 78.4276 156.611 78.3788 157.615V303.276C78.349 303.768 78.4467 304.259 78.6623 304.702C78.8779 305.145 79.2042 305.525 79.6095 305.805C80.077 306.062 82.5768 307.512 83.321 307.913C83.5843 308.047 83.8784 308.109 84.1735 308.092C84.4685 308.076 84.7537 307.981 85.0002 307.818L297.41 185.083C298.248 184.529 298.944 183.785 299.441 182.911C299.938 182.038 300.223 181.059 300.272 180.055V33.6406C300.314 33.2706 300.253 32.8961 300.095 32.559C299.936 32.2219 299.687 31.9357 299.375 31.7324C298.898 31.4176 296.35 30.0055 295.816 29.6907Z" fill="#230E6A"/>
<path d="M84.9521 154.648L297.419 31.9613C299.022 31.0073 300.281 31.7896 300.281 33.6405V180.055C300.232 181.059 299.947 182.038 299.45 182.911C298.953 183.785 298.257 184.529 297.419 185.083L84.9521 307.818C83.3492 308.772 82.0898 307.236 82.0898 305.385V159.676C82.1402 158.672 82.4254 157.695 82.9226 156.821C83.4197 155.948 84.1149 155.204 84.9521 154.648Z" fill="#FAFAFA"/>
<path d="M298.716 32.5146C299.279 32.5146 299.365 33.2207 299.365 33.6405V180.055C299.314 180.896 299.067 181.713 298.645 182.442C298.222 183.171 297.636 183.791 296.932 184.253L84.4942 306.988C84.3516 307.08 84.1869 307.133 84.0171 307.14C83.4828 307.14 83.063 306.32 83.063 305.385V159.676C83.1091 158.835 83.3482 158.017 83.7619 157.284C84.1755 156.551 84.7526 155.923 85.4482 155.449L297.896 32.7818C298.141 32.6232 298.424 32.5311 298.716 32.5146ZM298.716 31.5605C298.256 31.5801 297.809 31.7181 297.419 31.9613L84.9521 154.648C84.1149 155.204 83.4197 155.948 82.9226 156.821C82.4254 157.695 82.1402 158.672 82.0898 159.676V305.385C82.0898 306.854 82.9104 308.094 83.998 308.094C84.3349 308.088 84.6641 307.993 84.9521 307.818L297.409 185.083C298.247 184.529 298.943 183.785 299.441 182.911C299.938 182.038 300.223 181.059 300.271 180.055V33.6405C300.271 32.3238 299.623 31.5605 298.669 31.5605H298.716Z" fill="#E0E0E0"/>
<path d="M79.5521 305.805C79.8669 305.967 82.1281 307.255 83.1204 307.827C82.7641 307.532 82.4818 307.157 82.2963 306.733C82.1108 306.309 82.027 305.847 82.0518 305.385V169.188L78.3308 167.013V303.276C78.3 303.767 78.3962 304.258 78.6101 304.7C78.824 305.143 79.1484 305.524 79.5521 305.805Z" fill="#F0F0F0"/>
<path d="M300.319 33.6119C300.319 31.7801 299.012 31.0359 297.457 31.9613L84.9521 154.648C84.1149 155.204 83.4197 155.948 82.9226 156.821C82.4254 157.695 82.1402 158.672 82.0898 159.676V169.217L300.319 43.1528V33.6119Z" fill="#230E6A"/>
<g opacity="0.4">
<path d="M297.419 31.9614L84.9524 154.638C84.0996 155.176 83.3972 155.921 82.9106 156.804L79.2183 154.658C79.704 153.806 80.4005 153.093 81.2409 152.587L293.698 29.8529C294.002 29.6345 294.36 29.5032 294.733 29.4729C295.106 29.4427 295.481 29.5146 295.816 29.6811C296.331 30.0055 298.745 31.3699 299.365 31.7038C299.044 31.5848 298.699 31.5461 298.36 31.591C298.021 31.6359 297.698 31.7631 297.419 31.9614Z" fill="white"/>
</g>
<path opacity="0.15" d="M78.3306 167.023V157.567C78.3698 156.537 78.6755 155.534 79.2179 154.657L82.9197 156.795C82.3851 157.656 82.0858 158.643 82.0515 159.657V169.198L78.3306 167.023Z" fill="black"/>
<path d="M255.515 143.447L128.268 216.912C127.649 217.314 127.134 217.855 126.765 218.494C126.395 219.132 126.181 219.849 126.141 220.585V257.07C126.181 257.806 126.395 258.523 126.765 259.161C127.134 259.799 127.649 260.341 128.268 260.743L131.98 262.88C132.639 263.214 133.368 263.388 134.107 263.388C134.846 263.388 135.575 263.214 136.235 262.88L263.463 189.415C264.082 189.011 264.597 188.468 264.967 187.828C265.336 187.188 265.55 186.47 265.591 185.732V149.238C265.55 148.502 265.336 147.785 264.967 147.147C264.597 146.509 264.082 145.967 263.463 145.565L259.742 143.428C259.085 143.1 258.361 142.93 257.626 142.934C256.892 142.937 256.169 143.113 255.515 143.447Z" fill="#230E6A"/>
<path opacity="0.5" d="M265.591 148.914C265.438 147.817 264.551 147.416 263.482 148.036L136.235 221.501C135.608 221.891 135.092 222.437 134.737 223.085L126.771 218.486C127.128 217.848 127.639 217.31 128.259 216.922L255.516 143.457C256.173 143.122 256.901 142.948 257.638 142.948C258.376 142.948 259.104 143.122 259.761 143.457L263.482 145.594C264.05 145.965 264.531 146.454 264.895 147.026C265.258 147.599 265.496 148.242 265.591 148.914Z" fill="white"/>
<path d="M135.872 263.061C135.249 263.307 134.582 263.418 133.913 263.389C133.243 263.359 132.588 263.189 131.989 262.89L128.268 260.752C127.651 260.35 127.136 259.808 126.766 259.169C126.397 258.531 126.183 257.815 126.141 257.079V220.595C126.169 219.85 126.386 219.125 126.77 218.486L134.737 223.085C134.35 223.715 134.133 224.435 134.107 225.174V261.668C134.107 262.88 134.871 263.443 135.872 263.061Z" fill="#263238"/>
<path d="M136.235 221.501L263.482 148.036C264.655 147.359 265.609 147.903 265.609 149.257V185.751C265.569 186.489 265.355 187.207 264.986 187.847C264.616 188.487 264.101 189.031 263.482 189.434L136.254 262.899C135.08 263.577 134.126 263.023 134.126 261.668V225.184C134.164 224.448 134.375 223.731 134.741 223.091C135.108 222.452 135.619 221.907 136.235 221.501Z" fill="#230E6A"/>
<path d="M221.778 162.929L128.277 216.921C127.657 217.31 127.146 217.848 126.789 218.486L134.755 223.085C135.11 222.437 135.626 221.891 136.253 221.501L229.754 167.519L221.778 162.929Z" fill="#455A64"/>
<path d="M229.736 167.519L136.235 221.501C135.616 221.905 135.101 222.449 134.731 223.088C134.362 223.728 134.148 224.446 134.107 225.184V261.659C134.107 263.014 135.062 263.567 136.235 262.89L229.736 208.907V167.519Z" fill="#37474F"/>
<path d="M157.797 217.055L206.046 189.205C208.04 188.051 209.662 188.871 209.662 191.037C209.573 192.253 209.198 193.432 208.568 194.476C207.938 195.52 207.071 196.401 206.036 197.048L157.797 224.907C155.803 226.062 154.172 225.241 154.172 223.075C154.262 221.858 154.637 220.679 155.267 219.633C155.896 218.587 156.763 217.704 157.797 217.055Z" fill="#230E6A"/>
<path d="M167.682 226.281C167.691 226.271 167.702 226.263 167.714 226.257C167.727 226.252 167.74 226.249 167.753 226.249C167.767 226.249 167.78 226.252 167.793 226.257C167.805 226.263 167.816 226.271 167.825 226.281C167.868 226.346 167.888 226.423 167.882 226.501V231.929C167.883 232.454 167.838 232.977 167.749 233.494C167.67 233.966 167.535 234.427 167.348 234.868C167.177 235.272 166.952 235.65 166.68 235.994C166.412 236.312 166.089 236.581 165.726 236.786C165.442 236.971 165.111 237.07 164.772 237.072C164.642 237.062 164.516 237.025 164.402 236.964C164.287 236.904 164.185 236.82 164.104 236.719C163.895 236.438 163.757 236.111 163.703 235.765C163.612 235.303 163.57 234.833 163.579 234.362V228.924C163.579 228.829 163.598 228.735 163.637 228.647C163.66 228.569 163.711 228.501 163.78 228.457L164.381 228.104C164.4 228.085 164.426 228.075 164.452 228.075C164.479 228.075 164.504 228.085 164.524 228.104C164.568 228.168 164.588 228.245 164.581 228.323V233.685C164.574 233.98 164.603 234.275 164.667 234.563C164.693 234.747 164.773 234.919 164.896 235.059C164.939 235.11 164.993 235.15 165.054 235.177C165.116 235.203 165.182 235.215 165.249 235.212C165.412 235.201 165.57 235.148 165.707 235.059C165.877 234.957 166.031 234.832 166.165 234.687C166.314 234.515 166.436 234.322 166.527 234.114C166.635 233.87 166.715 233.614 166.766 233.351C166.822 233.036 166.847 232.717 166.842 232.397V227.025C166.845 226.93 166.868 226.835 166.909 226.749C166.932 226.67 166.983 226.602 167.052 226.558L167.682 226.281Z" fill="#FAFAFA"/>
<path d="M171.421 231.414C171.426 231.344 171.41 231.274 171.374 231.214C171.351 231.189 171.323 231.17 171.291 231.158C171.259 231.147 171.226 231.143 171.192 231.147C171.075 231.131 170.956 231.131 170.839 231.147L170.286 231.252C170.107 231.296 169.921 231.296 169.742 231.252C169.602 231.207 169.481 231.116 169.399 230.994C169.305 230.839 169.244 230.668 169.217 230.489C169.124 229.978 169.124 229.454 169.217 228.943C169.289 228.65 169.391 228.365 169.523 228.094C169.653 227.823 169.813 227.567 170 227.331C170.18 227.105 170.4 226.915 170.648 226.768C170.849 226.645 171.074 226.567 171.307 226.539C171.476 226.521 171.646 226.558 171.793 226.644C171.933 226.729 172.043 226.856 172.108 227.006C172.185 227.184 172.227 227.375 172.232 227.569C172.242 227.665 172.222 227.762 172.175 227.846C172.152 227.924 172.101 227.992 172.032 228.037L171.459 228.371C171.433 228.386 171.404 228.394 171.374 228.394C171.343 228.394 171.314 228.386 171.288 228.371L171.164 228.275C171.114 228.236 171.055 228.213 170.992 228.208C170.869 228.222 170.752 228.265 170.648 228.332C170.499 228.423 170.366 228.539 170.257 228.676C170.142 228.826 170.081 229.011 170.086 229.201C170.072 229.273 170.072 229.348 170.086 229.42C170.104 229.447 170.128 229.47 170.156 229.486C170.184 229.503 170.215 229.513 170.248 229.515C170.352 229.533 170.458 229.533 170.563 229.515L171.097 229.42C171.545 229.334 171.851 229.42 172.051 229.668C172.261 230.022 172.358 230.431 172.328 230.842C172.325 231.125 172.287 231.407 172.213 231.681C172.138 231.979 172.029 232.267 171.889 232.54C171.749 232.822 171.572 233.085 171.364 233.322C171.166 233.554 170.931 233.751 170.668 233.904C170.458 234.038 170.219 234.12 169.971 234.143C169.792 234.149 169.615 234.099 169.465 234C169.318 233.899 169.205 233.756 169.141 233.589C169.064 233.408 169.025 233.214 169.026 233.017C169.018 232.918 169.037 232.819 169.084 232.731C169.107 232.652 169.158 232.584 169.227 232.54L169.799 232.206C169.876 232.206 169.933 232.158 169.971 232.206L170.095 232.34C170.12 232.368 170.151 232.391 170.186 232.407C170.22 232.424 170.257 232.433 170.295 232.435C170.43 232.436 170.561 232.392 170.668 232.311C170.84 232.213 170.995 232.087 171.125 231.939C171.19 231.86 171.245 231.774 171.288 231.681C171.355 231.606 171.401 231.513 171.421 231.414Z" fill="#FAFAFA"/>
<path d="M173.368 228.829C173.366 228.333 173.408 227.838 173.492 227.35C173.572 226.89 173.696 226.44 173.864 226.004C174.004 225.615 174.197 225.245 174.437 224.907C174.637 224.617 174.897 224.373 175.2 224.192C175.421 224.043 175.691 223.985 175.954 224.03C176.187 224.083 176.391 224.223 176.526 224.421C176.706 224.68 176.832 224.971 176.898 225.279C176.99 225.68 177.034 226.09 177.032 226.501V227.092C177.035 227.192 177.012 227.29 176.965 227.378C176.942 227.457 176.891 227.525 176.822 227.569L174.341 229.01C174.335 229.178 174.358 229.346 174.408 229.506C174.445 229.614 174.511 229.71 174.599 229.783C174.677 229.845 174.776 229.875 174.875 229.869C174.991 229.855 175.102 229.816 175.2 229.754C175.344 229.676 175.473 229.572 175.581 229.449C175.679 229.339 175.762 229.217 175.83 229.086C175.87 229.011 175.915 228.938 175.963 228.867C176.004 228.818 176.052 228.776 176.106 228.743L176.698 228.399C176.718 228.383 176.743 228.374 176.769 228.374C176.795 228.374 176.821 228.383 176.841 228.399C176.866 228.429 176.884 228.465 176.894 228.503C176.904 228.541 176.905 228.58 176.898 228.619C176.888 228.805 176.849 228.988 176.784 229.163C176.701 229.427 176.593 229.683 176.459 229.926C176.31 230.205 176.131 230.467 175.925 230.708C175.72 230.954 175.475 231.164 175.2 231.328C174.974 231.476 174.704 231.54 174.437 231.51C174.202 231.453 173.997 231.31 173.864 231.109C173.676 230.82 173.55 230.495 173.492 230.155C173.405 229.718 173.364 229.274 173.368 228.829ZM175.2 225.785C175.053 225.864 174.926 225.975 174.828 226.109C174.722 226.243 174.635 226.391 174.57 226.548C174.503 226.706 174.449 226.869 174.408 227.035C174.374 227.186 174.352 227.339 174.341 227.493L176.02 226.539C176.011 226.407 175.991 226.276 175.963 226.148C175.948 226.032 175.902 225.923 175.83 225.833C175.801 225.792 175.764 225.757 175.722 225.73C175.679 225.704 175.631 225.687 175.581 225.68C175.446 225.669 175.311 225.706 175.2 225.785Z" fill="#FAFAFA"/>
<path d="M180.028 223.123C179.738 223.288 179.511 223.543 179.379 223.848C179.23 224.251 179.162 224.679 179.178 225.108V228.552C179.18 228.65 179.16 228.748 179.121 228.838C179.098 228.917 179.047 228.984 178.978 229.029L178.415 229.353C178.406 229.363 178.395 229.372 178.383 229.377C178.371 229.383 178.357 229.386 178.344 229.386C178.33 229.386 178.317 229.383 178.304 229.377C178.292 229.372 178.281 229.363 178.272 229.353C178.229 229.288 178.209 229.211 178.215 229.134V222.961C178.215 222.863 178.235 222.766 178.272 222.675C178.299 222.598 178.349 222.531 178.415 222.484L178.978 222.16C178.997 222.141 179.023 222.131 179.05 222.131C179.076 222.131 179.102 222.141 179.121 222.16C179.165 222.22 179.186 222.295 179.178 222.369V222.675C179.292 222.419 179.433 222.176 179.598 221.95C179.749 221.741 179.945 221.568 180.171 221.444L180.514 221.244C180.532 221.226 180.556 221.216 180.581 221.216C180.606 221.216 180.63 221.226 180.648 221.244C180.694 221.307 180.717 221.384 180.715 221.463V222.331C180.713 222.43 180.69 222.528 180.648 222.617C180.624 222.693 180.577 222.76 180.514 222.808L180.028 223.123Z" fill="#FAFAFA"/>
<path d="M187.145 222.665C187.154 222.655 187.165 222.647 187.177 222.641C187.19 222.636 187.203 222.633 187.216 222.633C187.23 222.633 187.243 222.636 187.256 222.641C187.268 222.647 187.279 222.655 187.288 222.665C187.331 222.73 187.351 222.807 187.345 222.885V223.839C187.345 223.937 187.325 224.034 187.288 224.125C187.255 224.196 187.206 224.258 187.145 224.306L183.882 226.214C183.863 226.233 183.837 226.243 183.81 226.243C183.784 226.243 183.758 226.233 183.739 226.214C183.696 226.153 183.676 226.079 183.682 226.005V217.418C183.682 217.319 183.702 217.222 183.739 217.131C183.766 217.057 183.816 216.993 183.882 216.95L184.483 216.597C184.502 216.579 184.528 216.569 184.555 216.569C184.581 216.569 184.607 216.579 184.626 216.597C184.669 216.658 184.689 216.733 184.683 216.807V224.068L187.145 222.665Z" fill="#FAFAFA"/>
<path d="M190.074 215.605C190.289 215.456 190.548 215.386 190.809 215.405C191.032 215.422 191.24 215.525 191.391 215.691C191.569 215.895 191.699 216.136 191.772 216.397C191.874 216.735 191.932 217.084 191.944 217.437C191.944 217.513 191.944 217.618 191.944 217.742V218.477C191.944 218.591 191.944 218.696 191.944 218.782C191.925 219.197 191.868 219.609 191.772 220.013C191.684 220.406 191.556 220.79 191.391 221.158C191.24 221.5 191.044 221.821 190.809 222.112C190.608 222.376 190.358 222.599 190.074 222.77C189.853 222.914 189.593 222.984 189.33 222.97C189.11 222.951 188.905 222.849 188.757 222.684C188.575 222.487 188.443 222.248 188.376 221.988C188.274 221.65 188.216 221.3 188.204 220.948C188.204 220.871 188.204 220.776 188.204 220.652V219.917C188.204 219.793 188.204 219.688 188.204 219.612C188.215 219.194 188.27 218.778 188.366 218.372C188.459 217.975 188.59 217.589 188.757 217.217C188.909 216.877 189.101 216.557 189.33 216.263C189.532 215.997 189.785 215.773 190.074 215.605ZM190.971 218.066C190.971 217.855 190.935 217.646 190.866 217.446C190.831 217.325 190.757 217.218 190.656 217.141C190.575 217.086 190.477 217.063 190.379 217.074C190.27 217.095 190.167 217.137 190.074 217.198C189.962 217.26 189.859 217.337 189.769 217.427C189.659 217.541 189.566 217.669 189.492 217.809C189.396 217.982 189.326 218.169 189.282 218.362C189.22 218.606 189.181 218.855 189.168 219.106C189.168 219.183 189.168 219.269 189.168 219.374V220.051C189.168 220.156 189.168 220.242 189.168 220.299C189.177 220.51 189.215 220.719 189.282 220.919C189.317 221.041 189.391 221.148 189.492 221.224C189.532 221.253 189.577 221.272 189.624 221.282C189.672 221.292 189.721 221.292 189.769 221.282C189.877 221.263 189.981 221.225 190.074 221.167C190.185 221.103 190.287 221.027 190.379 220.938C190.486 220.822 190.579 220.694 190.656 220.557C190.748 220.381 190.818 220.195 190.866 220.003C190.928 219.76 190.964 219.51 190.971 219.259C190.977 219.17 190.977 219.081 190.971 218.992V218.324C190.977 218.238 190.977 218.152 190.971 218.066Z" fill="#FAFAFA"/>
<path d="M194.864 221.186C194.986 221.112 195.095 221.018 195.188 220.91C195.303 220.775 195.402 220.628 195.484 220.471C195.579 220.279 195.652 220.077 195.703 219.87C195.762 219.636 195.791 219.395 195.789 219.154V218.668C195.789 218.763 195.694 218.877 195.627 219.011C195.562 219.15 195.485 219.285 195.398 219.412C195.299 219.546 195.19 219.673 195.074 219.793C194.954 219.919 194.816 220.025 194.664 220.108C194.566 220.175 194.455 220.221 194.339 220.244C194.222 220.267 194.102 220.266 193.986 220.242C193.774 220.175 193.592 220.037 193.471 219.851C193.315 219.604 193.203 219.333 193.137 219.049C193.056 218.689 193.011 218.321 193.003 217.952C193.003 217.828 193.003 217.675 193.003 217.494C193.003 217.313 193.003 217.16 193.003 217.026C193.015 216.607 193.06 216.189 193.137 215.777C193.215 215.371 193.327 214.972 193.471 214.584C193.606 214.247 193.779 213.927 193.986 213.63C194.162 213.367 194.393 213.146 194.664 212.981C194.79 212.905 194.929 212.85 195.074 212.819C195.181 212.799 195.291 212.799 195.398 212.819C195.483 212.843 195.561 212.885 195.627 212.943C195.688 212.99 195.743 213.044 195.789 213.105V212.8C195.79 212.702 195.809 212.604 195.847 212.514C195.873 212.439 195.924 212.376 195.99 212.332L196.553 211.998C196.572 211.98 196.598 211.97 196.624 211.97C196.651 211.97 196.676 211.98 196.696 211.998C196.742 212.062 196.765 212.139 196.763 212.218V218.419C196.788 219.348 196.616 220.272 196.257 221.129C195.975 221.803 195.488 222.371 194.864 222.751C194.651 222.883 194.408 222.959 194.158 222.97C193.96 222.982 193.763 222.932 193.595 222.827C193.434 222.707 193.303 222.55 193.213 222.369C193.12 222.152 193.069 221.919 193.061 221.682C193.052 221.584 193.072 221.484 193.118 221.396C193.141 221.318 193.192 221.25 193.261 221.205L193.767 220.919C193.778 220.907 193.792 220.897 193.808 220.89C193.824 220.883 193.84 220.88 193.857 220.88C193.874 220.88 193.891 220.883 193.907 220.89C193.922 220.897 193.936 220.907 193.948 220.919C193.995 220.969 194.037 221.023 194.072 221.081C194.13 221.184 194.226 221.259 194.339 221.291C194.454 221.377 194.625 221.282 194.864 221.186ZM193.967 216.559C193.967 216.813 193.967 217.061 193.967 217.303C193.94 217.684 194.048 218.063 194.272 218.372C194.357 218.445 194.466 218.485 194.578 218.485C194.69 218.485 194.798 218.445 194.883 218.372C195.16 218.192 195.376 217.932 195.503 217.628C195.677 217.229 195.774 216.802 195.789 216.368C195.789 216.225 195.789 216.053 195.789 215.853C195.789 215.653 195.789 215.481 195.789 215.357C195.809 215.015 195.707 214.677 195.503 214.403C195.419 214.325 195.308 214.282 195.193 214.282C195.078 214.282 194.968 214.325 194.883 214.403C194.611 214.582 194.399 214.838 194.272 215.137C194.076 215.586 193.973 216.069 193.967 216.559Z" fill="#FAFAFA"/>
<path d="M198.985 208.087C199.004 208.071 199.028 208.063 199.052 208.063C199.076 208.063 199.1 208.071 199.119 208.087C199.169 208.148 199.193 208.227 199.186 208.306V209.346C199.186 209.445 199.163 209.544 199.119 209.632C199.092 209.704 199.046 209.767 198.985 209.814L198.346 210.186C198.337 210.196 198.326 210.204 198.314 210.21C198.301 210.215 198.288 210.218 198.275 210.218C198.261 210.218 198.248 210.215 198.235 210.21C198.223 210.204 198.212 210.196 198.203 210.186C198.178 210.157 198.159 210.124 198.148 210.088C198.136 210.052 198.132 210.014 198.136 209.976V208.936C198.136 208.837 198.158 208.738 198.203 208.65C198.23 208.575 198.28 208.512 198.346 208.468L198.985 208.087ZM199.148 217.046C199.148 217.141 199.128 217.235 199.09 217.322C199.06 217.397 199.011 217.463 198.947 217.513L198.375 217.838C198.367 217.848 198.356 217.856 198.345 217.861C198.333 217.867 198.321 217.869 198.308 217.869C198.295 217.869 198.282 217.867 198.271 217.861C198.259 217.856 198.249 217.848 198.241 217.838C198.191 217.776 198.167 217.697 198.174 217.618V211.445C198.174 211.346 198.197 211.248 198.241 211.159C198.268 211.085 198.314 211.019 198.375 210.968L198.947 210.644C198.967 210.626 198.992 210.616 199.019 210.616C199.045 210.616 199.071 210.626 199.09 210.644C199.133 210.705 199.153 210.779 199.148 210.854V217.046Z" fill="#FAFAFA"/>
<path d="M204.166 214.136C204.165 214.234 204.146 214.331 204.109 214.422C204.082 214.496 204.032 214.56 203.965 214.603L203.393 214.937C203.375 214.954 203.351 214.964 203.326 214.964C203.301 214.964 203.277 214.954 203.259 214.937C203.21 214.875 203.186 214.797 203.193 214.718V211.359C203.222 210.963 203.15 210.565 202.983 210.205C202.849 209.966 202.639 209.928 202.344 210.1C202.049 210.298 201.83 210.591 201.723 210.93C201.564 211.38 201.487 211.855 201.494 212.332V215.7C201.494 215.798 201.474 215.896 201.437 215.986C201.414 216.065 201.363 216.133 201.294 216.177L200.731 216.502C200.722 216.512 200.711 216.52 200.699 216.526C200.686 216.531 200.673 216.534 200.66 216.534C200.646 216.534 200.633 216.531 200.62 216.526C200.608 216.52 200.597 216.512 200.588 216.502C200.544 216.441 200.523 216.366 200.531 216.292V210.119C200.529 210.02 200.549 209.923 200.588 209.833C200.611 209.754 200.662 209.686 200.731 209.642L201.294 209.317C201.303 209.307 201.314 209.299 201.326 209.294C201.339 209.288 201.352 209.285 201.366 209.285C201.379 209.285 201.393 209.288 201.405 209.294C201.417 209.299 201.428 209.307 201.437 209.317C201.48 209.382 201.5 209.459 201.494 209.537V209.833C201.62 209.542 201.773 209.264 201.952 209.003C202.109 208.762 202.322 208.562 202.573 208.421C202.79 208.262 203.06 208.193 203.326 208.23C203.432 208.256 203.531 208.305 203.616 208.372C203.702 208.44 203.772 208.524 203.822 208.621C203.961 208.879 204.051 209.16 204.09 209.451C204.14 209.83 204.166 210.213 204.166 210.596V214.136Z" fill="#FAFAFA"/>
<path d="M252.29 186.362L243.026 191.705L244.467 178.71C243.351 178.119 242.645 176.678 242.645 174.608C242.645 170.915 244.896 166.631 247.663 165.067C250.43 163.502 252.672 165.162 252.672 168.883C252.615 171.072 251.99 173.209 250.859 175.085L252.29 186.362Z" fill="#455A64"/>
<path d="M252.3 186.362L244.143 181.658L243.026 191.714L252.3 186.362Z" fill="#37474F"/>
<path d="M247.643 165.038C245.626 166.401 244.121 168.399 243.369 170.715L250.84 175.027C251.971 173.152 252.595 171.015 252.652 168.826C252.672 165.133 250.429 163.445 247.643 165.038Z" fill="#37474F"/>
<path d="M202.611 121.77C199.434 119.938 195.054 120.196 190.208 122.991C180.533 128.582 172.69 142.159 172.69 153.331C172.69 158.941 174.675 162.872 177.862 164.685L184.035 168.272C187.202 170.104 191.581 169.837 196.438 167.042C206.112 161.46 213.955 147.874 213.955 136.702C213.955 131.12 211.989 127.161 208.822 125.376" fill="#230E6A"/>
<path d="M196.428 126.588C186.754 132.179 178.911 145.765 178.911 156.928C178.911 168.091 186.754 172.633 196.428 167.042C206.103 161.451 213.955 147.874 213.945 136.702C213.936 125.529 206.093 121.007 196.428 126.588Z" fill="#230E6A"/>
<path d="M206.093 151.375V152.654C203.776 156.791 200.451 160.276 196.428 162.786C192.66 164.952 189.254 165.191 186.754 163.807V161.174C186.882 158.434 187.664 155.765 189.035 153.39C190.406 151.014 192.326 149.002 194.635 147.521L197.182 146.052C199.434 144.754 201.628 144.582 203.346 145.584C205.063 146.586 206.093 148.694 206.093 151.375Z" fill="#230E6A"/>
<path opacity="0.4" d="M202.611 121.77L208.812 125.376C205.645 123.535 201.265 123.793 196.409 126.588C190.074 130.252 184.521 137.341 181.449 144.935L175.238 141.338C178.32 133.706 183.825 126.655 190.198 122.991C195.064 120.205 199.443 119.938 202.611 121.77Z" fill="white"/>
<path opacity="0.2" d="M183.815 168.129L177.871 164.685C174.685 162.872 172.7 158.96 172.7 153.331L178.911 156.938C178.95 162.376 180.781 166.25 183.815 168.129Z" fill="black"/>
<path opacity="0.1" d="M175.257 141.338L181.468 144.935C179.877 148.737 179.022 152.807 178.949 156.928L172.738 153.322C172.815 149.204 173.669 145.138 175.257 141.338Z" fill="black"/>
<path d="M194.215 145.451C193.623 145.457 193.04 145.305 192.526 145.012C191.907 144.599 191.41 144.026 191.09 143.354C190.769 142.683 190.636 141.937 190.704 141.195C190.785 139.457 191.281 137.763 192.151 136.256C193.021 134.749 194.239 133.472 195.703 132.532C196.292 132.062 197.008 131.781 197.759 131.725C198.509 131.669 199.26 131.841 199.911 132.219C200.562 132.596 201.085 133.161 201.41 133.84C201.735 134.519 201.848 135.28 201.733 136.024C201.651 137.762 201.154 139.455 200.284 140.962C199.415 142.469 198.197 143.746 196.734 144.687C195.976 145.16 195.107 145.423 194.215 145.451Z" fill="white"/>
<path d="M203.346 145.575C201.628 144.573 199.434 144.745 197.182 146.042L194.635 147.511C192.325 148.993 190.404 151.007 189.033 153.384C187.662 155.762 186.88 158.433 186.754 161.174V163.817C189.254 165.2 192.66 164.962 196.428 162.796C200.451 160.286 203.776 156.801 206.093 152.663V151.385C206.093 148.694 205.101 146.586 203.346 145.575Z" fill="white"/>
<path d="M399.487 310.632C399.487 310.632 400.756 299.489 406.3 290.835C411.843 282.181 419.456 276.791 426.564 276.228C433.672 275.665 439.416 282.21 431.812 286.723C424.208 291.236 410.698 295.796 404.477 312.588L399.487 310.632Z" fill="#230E6A"/>
<path opacity="0.1" d="M399.487 310.632C399.487 310.632 400.756 299.489 406.3 290.835C411.843 282.181 419.456 276.791 426.564 276.228C433.672 275.665 439.416 282.21 431.812 286.723C424.208 291.236 410.698 295.796 404.477 312.588L399.487 310.632Z" fill="black"/>
<path d="M401.577 307.732H401.501C401.407 307.694 401.333 307.62 401.293 307.527C401.254 307.434 401.253 307.329 401.291 307.236C408.79 288.774 423.063 281.055 429.57 279.567C429.619 279.556 429.67 279.554 429.719 279.562C429.769 279.571 429.816 279.589 429.858 279.615C429.901 279.642 429.938 279.677 429.967 279.717C429.996 279.758 430.017 279.804 430.028 279.853C430.039 279.902 430.041 279.953 430.033 280.002C430.024 280.052 430.006 280.099 429.98 280.142C429.953 280.184 429.919 280.221 429.878 280.25C429.837 280.279 429.791 280.3 429.742 280.311C423.369 281.781 409.372 289.356 401.997 307.531C401.96 307.608 401.898 307.669 401.822 307.705C401.746 307.742 401.659 307.751 401.577 307.732Z" fill="white"/>
<path d="M439.531 307.951C438.891 309.402 437.308 310.165 435.838 310.756C434.369 311.348 432.766 311.987 431.965 313.361C430.362 316.128 432.995 320.04 431.278 322.721C430.873 323.26 430.364 323.713 429.78 324.051C429.197 324.388 428.551 324.605 427.881 324.686C426.784 324.886 425.668 324.886 424.561 324.982C424.031 324.975 423.502 324.933 422.977 324.858C421.435 324.514 419.823 324.685 418.388 325.344C416.184 326.585 415.526 329.361 414.171 331.508C413.343 332.772 412.252 333.842 410.973 334.646C409.694 335.449 408.256 335.967 406.758 336.164C405.804 336.288 403.895 336.469 402.941 335.906C402.867 335.87 402.796 335.825 402.731 335.773C402.588 335.62 402.417 335.42 402.34 335.315C402.335 335.293 402.335 335.27 402.34 335.248C401.949 333.807 402.588 332.319 402.617 330.83V330.563C402.55 328.836 402.502 327.119 402.464 325.402C402.382 322.221 402.35 319.041 402.369 315.861C402.369 313.8 402.14 311.548 403.018 309.611C403.972 307.474 406.376 307.427 407.282 305.337C407.645 304.498 407.836 303.61 408.189 302.761C408.734 301.527 409.608 300.465 410.715 299.693C411.822 298.921 413.12 298.467 414.467 298.382C418.655 298.172 422.405 301.559 426.593 301.244C427.671 301.158 428.73 300.824 429.799 300.633C433.186 299.994 437.107 300.958 439.015 303.83C439.434 304.421 439.7 305.107 439.79 305.826C439.88 306.545 439.791 307.275 439.531 307.951Z" fill="#230E6A"/>
<path d="M401.92 328.636C401.83 328.609 401.754 328.549 401.708 328.467C401.661 328.385 401.649 328.288 401.672 328.197C407.454 306.501 430.295 303.391 435.667 303.753C435.714 303.756 435.76 303.768 435.803 303.788C435.845 303.809 435.883 303.838 435.914 303.873C435.946 303.909 435.969 303.951 435.984 303.995C435.999 304.04 436.004 304.088 436.001 304.135C435.991 304.228 435.946 304.313 435.875 304.374C435.804 304.434 435.712 304.465 435.619 304.459C430.381 304.087 408.017 307.15 402.359 328.388C402.333 328.478 402.272 328.554 402.19 328.601C402.108 328.647 402.011 328.66 401.92 328.636Z" fill="white"/>
<path d="M427.328 317.645C427.256 317.635 427.189 317.601 427.137 317.55C425.026 315.719 422.536 314.378 419.846 313.621C417.156 312.864 414.332 312.71 411.576 313.17C411.483 313.179 411.39 313.152 411.316 313.096C411.242 313.039 411.192 312.957 411.175 312.865C411.161 312.771 411.185 312.676 411.24 312.6C411.295 312.523 411.378 312.471 411.471 312.455C414.346 311.976 417.291 312.14 420.095 312.933C422.899 313.726 425.493 315.13 427.691 317.044C427.724 317.077 427.751 317.116 427.77 317.159C427.788 317.203 427.797 317.25 427.797 317.297C427.797 317.344 427.788 317.39 427.77 317.434C427.751 317.477 427.724 317.517 427.691 317.55C427.648 317.601 427.589 317.638 427.525 317.655C427.46 317.672 427.391 317.669 427.328 317.645Z" fill="white"/>
<path d="M346.984 48.5912L350.018 49.7552V43.0766C350.018 37.7718 354.245 36.5029 358.834 39.1552C363.433 41.8076 367.154 48.2477 367.154 53.5525V54.5066C367.793 54.3111 368.469 54.2629 369.129 54.3653C369.79 54.4677 370.42 54.7182 370.97 55.0981C372.713 56.2344 374.162 57.7657 375.202 59.5678C376.241 61.3698 376.841 63.3917 376.952 65.4691V65.908L381.188 68.3504C382.334 69.0985 383.288 70.1059 383.973 71.291C384.657 72.4761 385.053 73.8057 385.129 75.1722C385.129 77.691 383.364 78.7119 381.188 77.4525L346.984 57.6932C345.837 56.9469 344.883 55.9397 344.2 54.7541C343.517 53.5685 343.124 52.238 343.053 50.8715C343.053 48.3622 344.799 47.3413 346.984 48.5912Z" fill="#E6E6E6"/>
<path d="M387.619 43.3056L393.124 46.4827C393.094 46.2421 393.078 46 393.076 45.7576V44.1643C393.076 41.302 395.061 40.1762 397.523 41.5978C398.58 42.2454 399.485 43.1145 400.175 44.1452C400.576 40.5769 403.381 39.2507 406.777 41.2066C408.718 42.4695 410.334 44.172 411.495 46.1761C412.655 48.1801 413.327 50.4294 413.456 52.7415V55.1268C413.48 56.0798 413.288 57.0259 412.893 57.8936L417.473 60.5269C418.186 61.0003 418.779 61.6344 419.203 62.3784C419.627 63.1224 419.871 63.9555 419.915 64.8108C419.915 66.385 418.808 67.0243 417.444 66.2419L387.619 49.0683C386.898 48.5983 386.298 47.9643 385.868 47.2181C385.439 46.4719 385.192 45.6347 385.148 44.7749C385.148 43.1625 386.255 42.5232 387.619 43.3056Z" fill="#E6E6E6"/>
<path d="M366.304 188.108C362.297 194.882 358.442 200.769 355.733 203.593C350.59 205.978 338.511 209.661 333.789 210.272C332.959 210.377 332.119 210.181 331.422 209.718C329.562 208.497 328.121 208.297 326.165 207.619C324.629 207.094 323.981 206.36 323.694 206.665C323.399 207.012 323.25 207.46 323.28 207.915C323.311 208.369 323.517 208.794 323.856 209.098C324.59 209.795 325.404 210.404 326.28 210.911C324.185 211.431 322 211.47 319.887 211.025C315.794 209.947 313.867 211.913 316.634 216.359C317.588 217.942 321.519 220.49 329.419 219.803C332.237 219.651 335.044 219.332 337.824 218.849C345.4 217.227 353.824 215.662 359.005 214.078C360.932 213.321 362.657 212.125 364.043 210.586C372.754 200.654 375.645 193.575 379.461 187.144L379.137 176.649C372.954 176.439 369.653 182.441 366.304 188.108Z" fill="#FFA8A7"/>
<path d="M380.196 176.439C378.403 176.187 376.576 176.43 374.911 177.142C373.246 177.853 371.808 179.006 370.75 180.475C366.514 185.904 359.015 198.937 359.015 198.937C359.015 198.937 361.467 205.472 368.089 206.57L378.727 192.201C378.727 192.201 383.764 182.221 380.196 176.439Z" fill="#455A64"/>
<path d="M403.198 322.931H396.262V335.296H403.198V322.931Z" fill="#FFA8A7"/>
<path d="M379.156 322.272L372.229 322.52L371.876 309.43L379.156 309.182V322.272Z" fill="#FFA8A7"/>
<path d="M404.172 215.891C404.172 222.78 403.161 278.279 403.161 278.279C403.313 280.264 405.069 283.927 404.716 291.551C404.191 301.903 403.495 329.113 403.495 329.113C402.304 329.723 400.99 330.053 399.653 330.079C398.316 330.106 396.99 329.828 395.776 329.266C395.776 329.266 390.147 291.102 388.907 280.884C387.819 271.925 385.033 242.272 385.033 242.272L381.283 277.325C382.078 281.086 382.367 284.937 382.142 288.774C381.818 293.545 379.585 318.237 379.585 318.237C378.387 318.944 377.043 319.368 375.656 319.479C374.27 319.59 372.876 319.384 371.58 318.876C371.58 318.876 367.63 281.666 367.554 277.297C367.459 272.335 369.863 215.834 369.863 215.834L404.172 215.891Z" fill="#37474F"/>
<path d="M396.262 331.727V330.697C395.594 330.993 394.058 337.118 391.301 339.732C389.116 341.812 386.139 344.207 385.376 346.525C384.613 348.844 389.526 350.265 391.578 349.893C393.944 349.454 398.066 347.708 399.096 346.077C400.126 344.445 400.613 342.079 401.453 340.896C402.292 339.713 404.229 338.396 404.677 337.022C404.817 335.737 404.684 334.436 404.286 333.206C403.962 331.928 403.618 330.525 403.199 330.649V331.432C402.221 332.234 400.991 332.667 399.726 332.653C398.714 332.739 396.253 332.529 396.262 331.727Z" fill="#263238"/>
<path d="M372.152 320.288C371.79 320.288 371.494 320.832 370.702 321.728C369.525 322.967 368.148 323.999 366.628 324.782C364.033 326.136 358.996 328.216 356.696 329.294C355.265 329.962 355.332 331.756 356.811 332.777C358.29 333.798 361.848 334.532 366.123 333.54C368.451 332.996 371.485 330.754 373.412 330.878C375.339 331.002 378.917 330.964 380.339 329.924C381.76 328.884 381.188 326.728 380.787 324.867C380.348 322.826 379.833 319.649 379.155 319.792V320.507C378.325 321.824 374.022 322.358 372.191 321.395L372.152 320.288Z" fill="#263238"/>
<path d="M385.032 242.272C381.424 241.091 378.125 239.119 375.377 236.5C375.377 236.5 377.285 240.135 382.781 243.522L381.598 274.825L385.032 242.272Z" fill="#263238"/>
<path d="M400.298 177.451C400.298 177.451 406.023 178.767 405.613 189.11L404.42 205.568V230.279C399.325 236.061 376.751 235.641 368.976 229.821C368.976 229.821 369.853 200.578 370.378 189.32C370.75 181.324 372.592 177.298 380.453 176.42L390.118 176.84L400.298 177.451Z" fill="#230E6A"/>
<path d="M393.009 155.965C393.042 157.349 392.801 158.727 392.299 160.018C391.797 161.308 391.044 162.487 390.085 163.486C389.125 164.484 387.977 165.283 386.707 165.836C385.438 166.389 384.071 166.685 382.686 166.708C376.961 166.708 373.603 161.766 372.363 155.965C370.073 145.346 376.981 145.212 382.686 145.212C385.481 145.27 388.138 146.435 390.074 148.451C392.01 150.467 393.065 153.17 393.009 155.965Z" fill="#263238"/>
<path d="M398.276 160.306C398.276 160.306 396.692 168.053 396.053 169.332C395.651 170.101 394.967 170.686 394.145 170.963L394.259 165.515L398.276 160.306Z" fill="#263238"/>
<path d="M396.282 149.21C396.282 149.21 397.417 148.923 398.629 150.813C399.659 152.425 399.898 156.051 398.276 160.353L395.29 160.716L396.282 149.21Z" fill="#263238"/>
<path d="M397.379 150.784L401.043 150.851C401.068 150.614 401.044 150.374 400.972 150.147C400.9 149.92 400.782 149.711 400.625 149.532C400.468 149.352 400.276 149.208 400.061 149.106C399.845 149.005 399.611 148.949 399.373 148.943C398.872 148.95 398.391 149.142 398.023 149.482C397.655 149.821 397.426 150.285 397.379 150.784Z" fill="#263238"/>
<path d="M397.827 149.916L400.537 147.311C400.381 147.127 400.188 146.977 399.971 146.871C399.754 146.766 399.518 146.706 399.277 146.696C399.036 146.686 398.795 146.726 398.57 146.814C398.345 146.902 398.141 147.035 397.971 147.206C397.611 147.558 397.397 148.031 397.37 148.533C397.344 149.035 397.507 149.529 397.827 149.916Z" fill="#263238"/>
<path d="M394.393 160.668C394.994 161.04 395.843 159.848 396.587 159.037C397.331 158.226 399.64 157.482 400.842 160.115C402.045 162.748 399.993 165.353 398.276 166.212C395.194 167.738 394.221 165.515 394.221 165.515L393.963 177.785C389.632 184.463 379.805 184.253 383.344 177.46V173.73C381.888 173.972 380.41 174.049 378.936 173.959C376.532 173.577 375.025 171.602 374.29 168.893C373.126 164.542 372.678 161.031 373.67 152.473C374.758 143.104 385.233 142.999 390.844 146.748C396.454 150.498 394.393 160.668 394.393 160.668Z" fill="#FFA8A7"/>
<path d="M381.34 151.013C383.84 150.765 386.311 150.25 388.82 150.059C389.362 149.993 389.91 150.019 390.442 150.135C392.351 150.66 392.122 152.892 392.427 154.448C392.952 157.138 393.381 161.689 394.392 161.708C394.698 161.708 395.843 159.733 396.587 159.027C396.996 158.419 397.227 157.709 397.255 156.976C397.445 155.869 397.541 154.734 397.627 153.608C397.703 152.654 397.798 151.7 397.798 150.746C397.842 149.668 397.756 148.588 397.541 147.53C397.302 146.631 396.843 145.805 396.205 145.126L396.014 144.916C394.757 143.601 393.231 142.573 391.54 141.901C389.107 140.99 386.556 140.434 383.964 140.251C381.376 140.067 378.8 139.749 376.246 139.297C376.099 139.254 375.944 139.254 375.797 139.297C375.694 139.354 375.606 139.436 375.543 139.537C375.479 139.637 375.442 139.751 375.435 139.869C375.33 140.462 375.395 141.072 375.623 141.63C375.851 142.187 376.232 142.668 376.723 143.018C374.996 143.151 373.011 142.254 371.351 141.796C371.217 141.739 371.072 141.71 370.926 141.71C370.781 141.71 370.636 141.739 370.502 141.796C370.335 141.913 370.217 142.086 370.168 142.283C370.047 142.731 370.031 143.201 370.12 143.657C370.272 145.038 370.786 146.354 371.609 147.473C372.895 149.147 374.711 150.335 376.761 150.841C378.27 151.132 379.814 151.19 381.34 151.013Z" fill="#263238"/>
<path d="M383.354 173.73C383.354 173.73 388.716 172.604 390.586 171.564C391.699 170.955 392.604 170.024 393.181 168.893C392.899 170.029 392.397 171.099 391.702 172.041C390.337 173.873 383.354 175.209 383.354 175.209V173.73Z" fill="#F28F8F"/>
<path d="M384.642 159.266C384.631 159.56 384.738 159.847 384.938 160.063C385.138 160.28 385.416 160.408 385.71 160.42C385.944 160.439 386.178 160.388 386.382 160.272C386.586 160.155 386.75 159.981 386.852 159.77C386.955 159.559 386.992 159.322 386.957 159.09C386.923 158.858 386.819 158.642 386.66 158.469C386.501 158.297 386.293 158.177 386.064 158.125C385.836 158.073 385.597 158.091 385.379 158.177C385.16 158.264 384.973 158.413 384.842 158.608C384.71 158.802 384.641 159.031 384.642 159.266Z" fill="#263238"/>
<path d="M386.359 154.639L388.659 155.965C388.826 155.638 388.864 155.26 388.765 154.906C388.666 154.552 388.437 154.249 388.124 154.057C387.972 153.971 387.803 153.918 387.629 153.901C387.455 153.884 387.28 153.904 387.114 153.959C386.948 154.013 386.795 154.102 386.665 154.219C386.535 154.336 386.431 154.479 386.359 154.639Z" fill="#263238"/>
<path d="M383.83 167.004L381.378 167.958C381.428 168.126 381.511 168.282 381.623 168.417C381.736 168.551 381.874 168.661 382.031 168.74C382.187 168.819 382.359 168.865 382.534 168.874C382.709 168.884 382.884 168.858 383.048 168.797C383.382 168.653 383.648 168.388 383.794 168.055C383.939 167.722 383.952 167.346 383.83 167.004Z" fill="#F28F8F"/>
<path d="M374.777 155.621L376.876 153.942C376.781 153.795 376.658 153.67 376.512 153.575C376.366 153.479 376.202 153.416 376.03 153.388C375.858 153.36 375.683 153.368 375.514 153.413C375.346 153.457 375.189 153.537 375.053 153.646C374.773 153.884 374.589 154.217 374.538 154.581C374.487 154.945 374.572 155.315 374.777 155.621Z" fill="#263238"/>
<path d="M375.702 158.951C375.718 159.16 375.796 159.359 375.924 159.525C376.052 159.69 376.225 159.815 376.423 159.884C376.621 159.952 376.835 159.962 377.038 159.911C377.241 159.86 377.425 159.751 377.567 159.598C377.71 159.444 377.804 159.252 377.839 159.046C377.874 158.839 377.849 158.627 377.765 158.435C377.682 158.243 377.544 158.079 377.369 157.964C377.194 157.849 376.989 157.788 376.78 157.787C376.632 157.792 376.487 157.826 376.353 157.887C376.219 157.948 376.098 158.036 375.998 158.144C375.898 158.252 375.82 158.379 375.769 158.518C375.718 158.656 375.695 158.803 375.702 158.951Z" fill="#263238"/>
<path d="M381.455 158.054L381.331 164.838L377.476 163.96L381.455 158.054Z" fill="#F28F8F"/>
<path d="M289.919 214.87L295.902 211.417L298.268 208.545L292.295 211.998L289.919 214.87Z" fill="#230E6A"/>
<path opacity="0.4" d="M289.919 214.87L295.902 211.417L298.268 208.545L292.295 211.998L289.919 214.87Z" fill="black"/>
<path d="M306.187 224.258L312.169 220.805L317.159 216.387L311.186 219.831L306.187 224.258Z" fill="#230E6A"/>
<path opacity="0.4" d="M306.187 224.258L312.169 220.805L317.159 216.387L311.186 219.831L306.187 224.258Z" fill="black"/>
<path d="M357.002 236.175C358.417 238.071 359.273 240.325 359.473 242.682C358.065 240.783 357.21 238.53 357.002 236.175ZM370.903 236.356C368.89 222.665 361.534 209.127 352.776 204.06C348.568 201.627 344.675 201.542 341.556 203.364L335.926 206.608L335.612 206.799C335.361 206.937 335.119 207.09 334.886 207.257C334.424 207.575 333.99 207.932 333.589 208.325L333.398 208.506C333.226 208.678 333.045 208.879 332.883 209.069C332.721 209.26 332.473 209.556 332.282 209.814C331.877 210.347 331.51 210.908 331.185 211.493C331.013 211.788 330.851 212.103 330.698 212.447L281.534 184.072L275.561 187.516V191.333L276.067 191.619L276.544 191.896V192.659L275.59 193.222V195.435L282.812 210.701L289.949 214.832L292.324 211.97L298.621 215.738L302.237 221.93L306.226 224.23L311.215 219.803L317.341 223.343L319.402 231.843L329.696 237.797C330.205 239.961 330.842 242.092 331.604 244.18C331.671 244.39 331.757 244.609 331.843 244.848C335.259 253.816 340.687 261.497 346.813 265.036C347.547 265.472 348.316 265.845 349.112 266.153C349.533 266.32 349.963 266.463 350.4 266.582C350.782 266.684 351.163 266.77 351.545 266.84C352.75 267.059 353.985 267.059 355.189 266.84L355.686 266.716C355.923 266.668 356.156 266.601 356.382 266.515L356.916 266.305C357.105 266.237 357.288 266.151 357.46 266.048C357.637 265.971 357.809 265.885 357.975 265.79L358.223 265.637C358.268 265.623 358.31 265.6 358.348 265.571C359.712 264.788 363.07 262.842 363.986 262.327C368.528 259.693 371.466 253.034 371.466 243.617C371.459 241.186 371.27 238.759 370.903 236.356Z" fill="#230E6A"/>
<path d="M355.256 247.729C352.889 246.365 350.981 242.319 350.981 238.694C350.981 235.068 352.889 233.227 355.256 234.582C357.622 235.937 359.52 239.992 359.52 243.627C359.52 247.262 357.612 249.094 355.256 247.729ZM364.921 239.801C362.917 226.119 355.561 212.571 346.793 207.514C342.728 205.167 338.969 204.995 335.916 206.608L335.601 206.799C335.351 206.937 335.108 207.09 334.876 207.257C334.414 207.575 333.98 207.932 333.579 208.325L333.388 208.506C333.216 208.678 333.035 208.879 332.873 209.069C332.71 209.26 332.462 209.556 332.272 209.814C331.867 210.347 331.5 210.908 331.174 211.493C331.003 211.789 330.84 212.103 330.688 212.447C329.798 214.291 329.157 216.245 328.78 218.257L275.551 187.516V191.333L276.056 191.619L276.533 191.896V192.659L275.579 193.222V195.435L282.802 210.701L289.938 214.832L292.314 211.97L298.611 215.738L302.227 221.931L306.215 224.23L311.205 219.803L317.33 223.343L319.391 231.844L329.695 237.797C330.204 239.961 330.841 242.092 331.604 244.18C331.67 244.39 331.756 244.609 331.842 244.848C335.258 253.816 340.687 261.497 346.812 265.036C347.546 265.472 348.315 265.845 349.111 266.153C349.532 266.32 349.962 266.463 350.399 266.582C350.781 266.684 351.163 266.77 351.544 266.84C352.749 267.059 353.984 267.059 355.189 266.84L355.685 266.716C355.922 266.668 356.155 266.601 356.381 266.515L356.916 266.305C357.105 266.237 357.287 266.151 357.46 266.048C357.636 265.971 357.808 265.885 357.975 265.79L358.223 265.637C358.268 265.623 358.31 265.6 358.347 265.571C362.697 262.823 365.493 256.259 365.493 247.071C365.477 244.637 365.286 242.207 364.921 239.801Z" fill="#230E6A"/>
<path opacity="0.4" d="M359.521 243.617C359.521 247.252 357.613 249.094 355.256 247.729C352.9 246.365 350.982 242.329 350.982 238.694C350.982 235.059 352.89 233.218 355.256 234.582C355.938 234.997 356.531 235.541 357.002 236.185C357.207 238.541 358.063 240.793 359.473 242.692C359.508 242.999 359.524 243.308 359.521 243.617Z" fill="black"/>
<path opacity="0.4" d="M371.446 243.607C371.446 253.024 368.508 259.684 363.966 262.317C363.012 262.832 359.692 264.779 358.328 265.561C362.678 262.813 365.474 256.249 365.474 247.061C365.464 244.631 365.279 242.204 364.92 239.801C362.917 226.119 355.561 212.571 346.793 207.514C342.728 205.167 338.969 204.995 335.916 206.608L341.545 203.364C344.665 201.542 348.558 201.627 352.765 204.06C361.533 209.127 368.889 222.665 370.893 236.356C371.256 238.756 371.441 241.18 371.446 243.607Z" fill="white"/>
<path d="M365.474 247.042C365.474 256.23 362.679 262.794 358.328 265.542C359.692 264.76 363.051 262.813 363.967 262.298C368.508 259.665 371.447 253.005 371.447 243.588C371.447 243.245 371.447 242.892 371.447 242.539L365.474 245.993C365.465 246.365 365.474 246.708 365.474 247.042Z" fill="#230E6A"/>
<path opacity="0.1" d="M365.474 247.042C365.474 256.23 362.679 262.794 358.328 265.542C359.692 264.76 363.051 262.813 363.967 262.298C368.508 259.665 371.447 253.005 371.447 243.588C371.447 243.245 371.447 242.892 371.447 242.539L365.474 245.993C365.465 246.365 365.474 246.708 365.474 247.042Z" fill="black"/>
<path opacity="0.15" d="M329.009 222.159V224.096L275.561 193.241L276.544 192.668V191.867L329.009 222.159Z" fill="black"/>
<path opacity="0.15" d="M329.009 222.961V224.096L275.561 193.241L276.544 192.668V192.659L329.009 222.961Z" fill="black"/>
<path opacity="0.15" d="M352.25 262.308C350.225 262.255 348.249 261.666 346.526 260.6C337.815 255.572 330.726 240.612 330.726 227.254C330.726 219.46 333.083 213.64 337.195 211.264C340.057 209.604 343.444 209.814 347.003 211.865C355.704 216.893 362.793 231.901 362.793 245.258C362.793 253.044 360.436 258.873 356.324 261.239C355.084 261.947 353.679 262.316 352.25 262.308ZM341.326 211.121C340.055 211.114 338.804 211.443 337.701 212.075C333.951 214.241 331.709 219.917 331.709 227.245C331.709 240.297 338.578 254.914 347.032 259.76C350.266 261.668 353.329 261.84 355.876 260.371C359.626 258.205 361.868 252.538 361.868 245.21C361.868 232.149 354.998 217.542 346.554 212.685C344.976 211.725 343.173 211.199 341.326 211.159V211.121Z" fill="black"/>
<path opacity="0.4" d="M330.65 212.428C329.76 214.272 329.118 216.226 328.741 218.238L275.513 187.497L281.485 184.053L330.65 212.428Z" fill="white"/>
<path d="M399.831 215.414C402.617 210.138 405.804 198.288 407.388 192.306C409.639 183.815 405.995 178.472 401.854 178.252C399.268 178.653 390.748 209.632 390.748 209.632C389.794 210.386 376.847 216.96 372.687 218.61C371.943 218.892 371.122 218.892 370.378 218.61C368.384 217.885 367.02 218.019 365.064 217.828C363.528 217.675 362.755 217.131 362.555 217.456C362.373 217.858 362.349 218.315 362.489 218.734C362.629 219.153 362.921 219.504 363.309 219.717C364.151 220.208 365.047 220.598 365.98 220.881C364.308 221.388 362.565 221.623 360.818 221.577C356.811 221.492 355.37 223.228 358.481 227.302C360.389 229.84 363.547 230.641 370.598 228.208C372.62 227.502 375.368 226.138 377.935 225.213C383.22 223.304 384.613 223.075 388.64 221.711C394.507 219.727 398.591 217.761 399.831 215.414Z" fill="#FFA8A7"/>
<path d="M400.298 177.451C402.731 177.785 405.069 178.328 406.509 180.313C407.95 182.297 409.105 185.083 407.693 192.668C406.611 198.003 405.164 203.256 403.361 208.392C403.361 208.392 397.694 210.815 391.673 204.671L395.814 188.661C395.814 188.661 396.482 178.252 400.298 177.451Z" fill="#455A64"/>
</svg>
